Coordinates
version=1
nRows=22
nColumns=24
inDegrees=yes

Units are S.I. units (second, meters, Newtons, ...)
Angles are in degrees.

endheader
time	pelvis_tilt	pelvis_list	pelvis_rotation	pelvis_tx	pelvis_ty	pelvis_tz	hip_flexion_r	hip_adduction_r	hip_rotation_r	knee_angle_r	ankle_angle_r	subtalar_angle_r	mtp_angle_r	hip_flexion_l	hip_adduction_l	hip_rotation_l	knee_angle_l	ankle_angle_l	subtalar_angle_l	mtp_angle_l	lumbar_extension	lumbar_bending	lumbar_rotation
      6.30000000	     -8.44796801	      5.44094564	      3.14518323	     -1.52448281	     -0.00298600	     -0.30036539	     28.09436251	    -11.34375074	    -10.11237522	    -64.37606013	    -14.77477893	      5.78273939	     38.93143446	     11.13579383	     10.85394690	     12.02442800	    -11.43092066	      0.61001984	     -6.66492056	      3.65738174	      6.96284960	     -8.51366306	     -0.47570720
      6.30500000	     -8.38031491	      5.23107243	      3.31698356	     -1.51975043	     -0.00256397	     -0.30068524	     28.65041148	    -11.14399015	    -10.25638176	    -63.83302300	    -14.18102922	      5.81293001	     39.08444575	     10.57112724	     10.62505962	     12.25013097	    -11.12421761	      0.81659519	     -6.57512291	      3.70377854	      6.79370658	     -8.32483428	     -0.81594368
      6.31000000	     -8.22166236	      5.06014483	      3.53506750	     -1.51509070	     -0.00209122	     -0.30103696	     29.07182438	    -11.00580901	    -10.43665803	    -63.22592609	    -13.53216371	      5.85227878	     39.18653281	      9.91424710	     10.43530344	     12.46824852	    -10.82125358	      0.97891165	     -6.44710679	      3.78189791	      6.49604464	     -8.17998339	     -1.24820438
      6.31500000	     -8.14695799	      4.88110670	      3.67817561	     -1.51036918	     -0.00176716	     -0.30130344	     29.59336314	    -10.81202792	    -10.52454991	    -62.56741784	    -12.96300292	      5.84297190	     39.22656721	      9.33955795	     10.21985527	     12.64387590	    -10.49424199	      1.16557325	     -6.35431113	      3.87883045	      6.32311210	     -8.01012679	     -1.54527935
      6.32000000	     -7.94420546	      4.72655886	      3.87971693	     -1.50572066	     -0.00134881	     -0.30157857	     29.92889448	    -10.66671998	    -10.67167808	    -61.84149050	    -12.31559446	      5.86529377	     39.12405520	      8.63695343	     10.02524127	     12.81608115	    -10.17915284	      1.31309496	     -6.21881137	      4.05775846	      5.97693693	     -7.88297222	     -1.95194788
      6.32500000	     -7.77469429	      4.58047283	      4.02826753	     -1.50100329	     -0.00101471	     -0.30176976	     30.29593298	    -10.49460904	    -10.75457370	    -61.06902834	    -11.69861539	      5.87368124	     38.83988128	      7.95317183	      9.82218704	     12.97898460	     -9.82780969	      1.43687558	     -6.12176202	      4.29564594	      5.69565174	     -7.75092073	     -2.24279953
      6.33000000	     -7.74660097	      4.43569463	      4.14192641	     -1.49636971	     -0.00091350	     -0.30191544	     30.82774863	    -10.29253402	    -10.74272148	    -60.24169113	    -11.19158598	      5.81728301	     38.78035423	      7.46510098	      9.63321434	     13.10554591	     -9.54909366	      1.60806387	     -6.07769135	      4.39407757	      5.56509977	     -7.61669070	     -2.48638785
      6.33500000	     -7.46247118	      4.31600601	      4.31263046	     -1.49163295	     -0.00055651	     -0.30209277	     31.00915652	    -10.15376091	    -10.84974884	    -59.36115274	    -10.55241062	      5.87038739	     38.16758175	      6.65447945	      9.44701718	     13.28223796	     -9.19409193	      1.71303103	     -6.01016548	      4.66963208	      5.15396518	     -7.50805843	     -2.82598320
      6.34000000	     -7.34374759	      4.17412990	      4.50132498	     -1.48699493	     -0.00042795	     -0.30228224	     31.36224354	     -9.99179558	    -10.91063948	    -58.41437850	    -10.04062899	      5.89114113	     37.83102270	      6.08163065	      9.26233352	     13.46008471	     -8.94403139	      1.86664780	     -5.97759566	      4.80856847	      4.91099330	     -7.38434410	     -3.19983542
      6.34500000	     -7.17120283	      4.05725734	      4.64341202	     -1.48231882	     -0.00029200	     -0.30236899	     31.64202541	     -9.81982090	    -10.91960876	    -57.42166586	     -9.53042071	      5.91202762	     37.29948162	      5.43493717	      9.08697327	     13.66274144	     -8.67184233	      2.00740646	     -6.00501074	      4.90018919	      4.62018082	     -7.27864664	     -3.47361936
      6.35000000	     -7.16809335	      3.94225407	      4.75382527	     -1.47764150	     -0.00040659	     -0.30240741	     32.10784873	     -9.63404350	    -10.84495759	    -56.37322553	     -9.19048632	      5.90922061	     37.12928278	      5.00192044	      8.92940155	     13.79892491	     -8.45278078	      2.20879177	     -6.04215497	      4.94125316	      4.53004922	     -7.18599789	     -3.69855021
      6.35500000	     -6.88172445	      3.84284175	      4.92459389	     -1.47293134	     -0.00018637	     -0.30250040	     32.19427935	     -9.48842272	    -10.87438401	    -55.29139781	     -8.61262984	      6.07268157	     36.03105486	      4.22056412	      8.76613051	     14.13336057	     -8.17981278	      2.31293974	     -6.19846379	      4.79286746	      4.11339485	     -7.08655370	     -4.01603382
      6.36000000	     -6.81531730	      3.70807454	      5.16842215	     -1.46828109	     -0.00026035	     -0.30267064	     32.48589418	     -9.36320498	    -10.95651476	    -54.11400545	     -8.27176463	      6.07478597	     35.61954862	      3.75780503	      8.60188666	     14.41666706	     -8.05025301	      2.53303433	     -6.23771306	      4.73785468	      3.93303426	     -6.97382961	     -4.37128306
      6.36500000	     -6.65758952	      3.60781813	      5.31102776	     -1.46360763	     -0.00025532	     -0.30268022	     32.68405185	     -9.19405229	    -10.88890041	    -52.93187320	     -7.85288312	      6.27182980	     34.70294274	      3.15914727	      8.45082812	     14.74788875	     -7.86263271	      2.70703492	     -6.45392086	      4.37547455	      3.65668324	     -6.88365905	     -4.64965545
      6.37000000	     -6.59210018	      3.47682477	      5.54749340	     -1.45900971	     -0.00038879	     -0.30277046	     32.93302745	     -9.05268173	    -10.90738071	    -51.66099890	     -7.59465645	      6.30948962	     34.17985113	      2.72566727	      8.28745603	     15.10494361	     -7.79098024	      2.95806752	     -6.55184004	      4.19847859	      3.46482352	     -6.77636640	     -4.99805473
      6.37500000	     -6.61652779	      3.34095397	      5.68773817	     -1.45435407	     -0.00063345	     -0.30274547	     33.27562283	     -8.85004054	    -10.78168062	    -50.33080966	     -7.43360620	      6.43365183	     33.88434387	      2.39830357	      8.11933449	     15.31335602	     -7.71950437	      3.16203651	     -6.67093837	      4.11959619	      3.39626044	     -6.65574958	     -5.18527985
      6.38000000	     -6.40973187	      3.21881379	      5.96466232	     -1.44975209	     -0.00062957	     -0.30286063	     33.29447012	     -8.74002297	    -10.85601498	    -48.97840007	     -7.12530602	      6.54426850	     32.89289053	      1.79509691	      7.95117667	     15.85620806	     -7.63539117	      3.37715881	     -6.94475524	      3.64438729	      3.04016465	     -6.54682587	     -5.62283654
      6.38500000	     -6.38348389	      3.08325047	      6.16961038	     -1.44507771	     -0.00085398	     -0.30290641	     33.51109549	     -8.58601772	    -10.81505989	    -47.61191373	     -6.78603282	      6.79338806	     31.83347058	      1.40862905	      7.78602989	     16.29760851	     -7.59490500	      3.66241687	     -7.17367432	      3.06015220	      2.90954626	     -6.42364698	     -5.90805905
      6.39000000	     -6.47585463	      2.96460316	      6.29398128	     -1.44042499	     -0.00125125	     -0.30281370	     33.85648096	     -8.40280645	    -10.61929807	    -46.16618285	     -6.70273932	      6.98394119	     31.57328964	      1.18780774	      7.64132556	     16.46124121	     -7.58204400	      3.88000078	     -7.26564111	      3.00076390	      2.91423199	     -6.32801056	     -6.05724557
      6.39500000	     -6.37027014	      2.80861443	      6.56769225	     -1.43582305	     -0.00139667	     -0.30289909	     33.90548107	     -8.26627387	    -10.64882846	    -44.68412773	     -6.49061121	      7.12043794	     30.58630473	      0.74496266	      7.44224493	     16.96617343	     -7.58241491	      4.14949005	     -7.46503593	      2.54019243	      2.67583149	     -6.17951313	     -6.46259549
      6.40000000	     -6.49148394	      2.66912494	      6.68167938	     -1.43112371	     -0.00185549	     -0.30278338	     34.22259666	     -8.06897687	    -10.43615029	    -43.16390517	     -6.40247709	      7.36455775	     30.27447611	      0.55899205	      7.27338128	     17.14191225	     -7.57482690	      4.37194947	     -7.56947065	      2.46589497	      2.71994840	     -6.06089623	     -6.58131798
      6.40500000	     -6.40426930	      2.54126549	      6.87277884	     -1.42642543	     -0.00208680	     -0.30277085	     34.26460999	     -7.92626791	    -10.36357564	    -41.69395829	     -5.89342373	      7.77506329	     28.68115855	      0.11319859	      7.09621134	     17.62298108	     -7.55666714	      4.70207204	     -7.79293165	      1.66664507	      2.52166261	     -5.93184851	     -6.86002375
